<svg fill="#479CF7" xmlns:rdf="http://www.w3.org/1999/02/22-rdf-syntax-ns#" xmlns="http://www.w3.org/2000/svg" xmlns:cc="http://creativecommons.org/ns#" xmlns:dc="http://purl.org/dc/elements/1.1/" version="1.1" viewBox="-39 0 100 125.06765" x="0px" y="0px"><path d="m62.5 5.125c-11.944 0-23.398 4.7548-31.832 13.215-8.19 8.238-13.123 19.163-13.885 30.756-0.401 6.313 0.53 12.643 2.733 18.574 2.16 5.918 5.695 11.521 10.509 16.648l32.475 34.592 32.475-34.592c4.814-5.127 8.355-10.728 10.505-16.648 2.21-5.931 3.14-12.261 2.74-18.574-0.76-11.593-5.69-22.518-13.886-30.756-8.433-8.4602-19.888-13.215-31.834-13.215zm0.008 7.67c0.125 0 0.249 0.001 0.373 0.004 9.268 0.092 18.098 3.959 24.451 10.707 6.475 6.797 10.021 15.863 9.877 25.25-0.209 19.493-15.752 35.213-34.723 35.213-0.122 0-0.243-0.002-0.367-0.002-19.138-0.206-34.537-16.337-34.326-35.959 0.057-9.388 3.796-18.375 10.414-25.031 6.406-6.517 15.164-10.186 24.301-10.182zm0.33 4.195c-8.135-0.087-15.953 3.142-21.656 8.944-12.318 12.509-12.257 32.605 0.136 45.039 1.917-10.183 10.81-17.562 21.172-17.569 10.363-0.004 19.262 7.365 21.19 17.547 12.208-12.245 12.484-31.976 0.619-44.556-5.577-5.922-13.326-9.318-21.461-9.405zm-0.338 3.91c7.607 0 13.773 6.168 13.773 13.774 0 7.607-6.166 13.775-13.773 13.775-7.603-0.008-13.764-6.171-13.773-13.775 0-7.606 6.167-13.774 13.773-13.774zm0 4.194c-5.289 0.007-9.575 4.291-9.582 9.58 0 5.292 4.291 9.582 9.582 9.582 5.293 0 9.582-4.29 9.582-9.582s-4.289-9.58-9.582-9.58zm-0.012 32.504c-9.291 0.007-16.931 7.327-17.336 16.611 4.965 3.557 10.904 5.499 17.012 5.564 0.106 0.003 0.215 0.002 0.322 0.002 6.229-0.002 12.303-1.957 17.362-5.591-0.417-9.283-8.067-16.593-17.36-16.586z" transform="matrix(.80043 0 0 .80043 -39.027 0)"/></svg>